<svg xmlns="http://www.w3.org/2000/svg" data-name="Layer 1" viewBox="0 0 512 512"><rect width="58.168" height="40" x="446.332" y="191.21" fill="#e4222e" rx="11"/><path fill="#c0232c" d="M493.5,191.2099h-15a11,11,0,0,1,11,11v18a11,11,0,0,1-11,11h15a11,11,0,0,0,11-11v-18A11,11,0,0,0,493.5,191.2099Z"/><rect width="58.168" height="40" x="7.5" y="191.21" fill="#e4222e" rx="11"/><path fill="#787681" d="M386,437.61179h70a0,0,0,0,1,0,0v53.38464A13.50357,13.50357,0,0,1,442.49643,504.5H399.50357A13.50357,13.50357,0,0,1,386,490.99643V437.61179A0,0,0,0,1,386,437.61179Z"/><path fill="#57565c" d="M426,437.61176V490.9964A13.50356,13.50356,0,0,1,412.49646,504.5h30A13.50356,13.50356,0,0,0,456,490.9964V437.61176Z"/><path fill="#787681" d="M56,437.61179h70a0,0,0,0,1,0,0v53.38464A13.50357,13.50357,0,0,1,112.49643,504.5H69.50357A13.50357,13.50357,0,0,1,56,490.99643V437.61179A0,0,0,0,1,56,437.61179Z"/><path fill="#57565c" d="M96,437.61176V490.9964A13.50356,13.50356,0,0,1,82.49646,504.5h30A13.50356,13.50356,0,0,0,126,490.9964V437.61176Z"/><path fill="#c0232c" d="M54.66809,191.2099h-15a11,11,0,0,1,11,11v18a11,11,0,0,1-11,11h15a11,11,0,0,0,11-11v-18A11,11,0,0,0,54.66809,191.2099Z"/><path fill="#eb304a" d="M441.55407,213.53682l-32.72935-85.09631a30,30,0,0,0-28.00037-19.23062H131.17565a30,30,0,0,0-28.00037,19.23062L70.44593,213.53682a69.65653,69.65653,0,0,1-14.1515,22.58759l0,0A69.65649,69.65649,0,0,0,37.5,283.71725V409.20989a30,30,0,0,0,30,30h377a30,30,0,0,0,30-30V283.71725a69.65649,69.65649,0,0,0-18.79441-47.59281l0,0A69.65667,69.65667,0,0,1,441.55407,213.53682Z"/><path fill="#e4222e" d="M455.70563,236.12445l-.00006-.00006a69.65731,69.65731,0,0,1-14.15149-22.58759l-32.72937-85.09631a29.99992,29.99992,0,0,0-28.00037-19.23059h-30a29.99992,29.99992,0,0,1,28.00037,19.23059l32.72937,85.09631a69.65731,69.65731,0,0,0,14.15149,22.58759l.00006.00006A69.6563,69.6563,0,0,1,444.5,283.71722V409.2099a30,30,0,0,1-30,30h30a30,30,0,0,0,30-30V283.71722A69.6563,69.6563,0,0,0,455.70563,236.12445Z"/><path fill="#57565c" d="M389.5,439.20989h-268L154.94531,410.224a40.989,40.989,0,0,1,26.845-10.01406H329.20973a40.989,40.989,0,0,1,26.845,10.01406Z"/><path fill="#3c3b41" d="M356.05469,410.22394a40.98886,40.98886,0,0,0-26.845-10.014h-45a40.98886,40.98886,0,0,1,26.845,10.014L344.5,439.2099h45Z"/><path fill="#fff" d="M332.88306,357.20989H179.11694a8,8,0,0,1-6.50986-3.3501l-18.57143-26a8,8,0,0,1,6.50986-12.6499h190.909a8,8,0,0,1,6.50986,12.6499l-18.57143,26A8,8,0,0,1,332.88306,357.20989Z"/><path fill="#e1e1e3" d="M351.45453,315.2099h-45a8,8,0,0,1,6.50983,12.6499l-18.57142,26a8.00006,8.00006,0,0,1-6.50988,3.3501h45a8.00006,8.00006,0,0,0,6.50988-3.3501l18.57142-26A8,8,0,0,0,351.45453,315.2099Z"/><circle cx="421" cy="337.71" r="22.5" fill="#fddd5a"/><path fill="#fed030" d="M421,315.2099a22.45433,22.45433,0,0,0-7.5,1.28534,22.50206,22.50206,0,0,1,0,42.42932A22.5006,22.5006,0,1,0,421,315.2099Z"/><circle cx="91" cy="337.71" r="22.5" fill="#fddd5a"/><path fill="#fed030" d="M91,315.2099a22.45433,22.45433,0,0,0-7.5,1.28534,22.50206,22.50206,0,0,1,0,42.42932A22.5006,22.5006,0,1,0,91,315.2099Z"/><path fill="#52bbe9" d="M135.98261,140.34637H376.01739a6,6,0,0,1,5.59538,3.83395l36.226,93.58a6,6,0,0,1-5.59538,8.166H99.75656a6,6,0,0,1-5.59538-8.166l36.226-93.58A6,6,0,0,1,135.98261,140.34637Z"/><path fill="#1cabe1" d="M417.83881,237.76031l-36.226-93.58a6.00007,6.00007,0,0,0-5.59539-3.83393h-30a6.00007,6.00007,0,0,1,5.59539,3.83393l36.226,93.58a6,6,0,0,1-5.59534,8.16608h30A6,6,0,0,0,417.83881,237.76031Z"/><path fill="#787681" d="M504.5,512H7.5a7.5,7.5,0,0,1,0-15h497a7.5,7.5,0,0,1,0,15Z"/><path fill="#3c3b41" d="M91,307.71015a30,30,0,1,0,30,30A30.03406,30.03406,0,0,0,91,307.71015Zm0,45a15,15,0,1,1,15-15A15.017,15.017,0,0,1,91,352.71015Zm421-132.5v-18a18.52065,18.52065,0,0,0-18.5-18.5H457.332a18.48747,18.48747,0,0,0-15.78839,8.907l-25.71893-66.86889a37.74976,37.74976,0,0,0-31.958-23.906v-4.7478a7.5,7.5,0,1,0-15,0v4.61572h-218.438V97.09443a7.5,7.5,0,0,0-15,0v4.61572h-4.25293a37.72446,37.72446,0,0,0-35.00049,24.03809L70.45636,192.61713a18.48747,18.48747,0,0,0-15.78839-8.907H18.5a18.52065,18.52065,0,0,0-18.5,18.5v18a18.52065,18.52065,0,0,0,18.5,18.5H44.49982A76.8464,76.8464,0,0,0,30,283.71748V409.21015a37.5119,37.5119,0,0,0,18.5,32.31116v49.47546a20.91817,20.91817,0,0,0,.88513,6.00342H7.5a7.5,7.5,0,0,0,0,15h497a7.5,7.5,0,0,0,0-15H462.61487a20.91817,20.91817,0,0,0,.88513-6.00342V441.52131A37.5119,37.5119,0,0,0,482,409.21015V283.71748a76.84475,76.84475,0,0,0-14.5-45.00733h26A18.52065,18.52065,0,0,0,512,220.21015Zm-493.5,3.5a3.50424,3.50424,0,0,1-3.5-3.5v-18a3.50424,3.50424,0,0,1,3.5-3.5H54.668a3.50424,3.50424,0,0,1,3.5,3.5v18a3.50424,3.50424,0,0,1-3.5,3.5Zm100,267.28662a6.00989,6.00989,0,0,1-6.00342,6.00342H69.50342A6.00989,6.00989,0,0,1,63.5,490.99677V446.49433a37.73434,37.73434,0,0,0,4,.21582h51Zm14.11487,6.00342a20.91817,20.91817,0,0,0,.88513-6.00342V446.71015h245v44.28662a20.91817,20.91817,0,0,0,.88513,6.00342Zm8.9906-65.29,18.25195-15.81836A33.49272,33.49272,0,0,1,181.79,407.71015H329.21a33.4927,33.4927,0,0,1,21.93262,8.18164l18.25195,15.81836ZM448.5,490.99677a6.00989,6.00989,0,0,1-6.00342,6.00342H399.50342A6.00989,6.00989,0,0,1,393.5,490.99677V446.71015h51a37.73434,37.73434,0,0,0,4-.21582ZM467,409.21015a22.52523,22.52523,0,0,1-22.5,22.5H392.29767L360.9668,404.55683A48.49238,48.49238,0,0,0,329.21,392.71015H181.79a48.49238,48.49238,0,0,0-31.75684,11.84668l-31.33087,27.15332H67.5a22.52523,22.52523,0,0,1-22.5-22.5V283.71748a61.948,61.948,0,0,1,16.771-42.46875,76.80261,76.80261,0,0,0,15.6748-25.01954L110.17529,131.133a22.63455,22.63455,0,0,1,21.00049-14.42285H380.82422A22.63455,22.63455,0,0,1,401.82471,131.133l32.72949,85.09619a76.80977,76.80977,0,0,0,15.67481,25.02A61.94589,61.94589,0,0,1,467,283.71748Zm-9.668-185.5a3.50425,3.50425,0,0,1-3.5-3.5v-18a3.50425,3.50425,0,0,1,3.5-3.5H493.5a3.50424,3.50424,0,0,1,3.5,3.5v18a3.50424,3.50424,0,0,1-3.5,3.5Zm-105.87744,84H160.54541a15.5,15.5,0,0,0-12.61279,24.50928l18.57129,26a15.53105,15.53105,0,0,0,12.61279,6.49072H332.8833a15.53109,15.53109,0,0,0,12.6128-6.49072l18.57128-26a15.5,15.5,0,0,0-12.61279-24.50928Zm.40674,15.79053-18.57129,26a.5003.5003,0,0,1-.40674.20947H179.1167a.50031.50031,0,0,1-.40674-.20947l-18.57129-26a.5.5,0,0,1,.40674-.79053H351.45459a.5.5,0,0,1,.40674.79053ZM91,253.42646H421a7.49986,7.49986,0,0,0,6.99414-10.20752L387.12256,137.63886a7.49977,7.49977,0,0,0-6.99414-4.79248H131.87158a7.49979,7.49979,0,0,0-6.99414,4.79248L84.00586,243.21894A7.49986,7.49986,0,0,0,91,253.42646Zm46.01074-105.58008H374.98926l35.06494,90.58008H101.9458ZM421,307.71015a30,30,0,1,0,30,30A30.03406,30.03406,0,0,0,421,307.71015Zm0,45a15,15,0,1,1,15-15A15.017,15.017,0,0,1,421,352.71015Z"/></svg>