<?xml version="1.0" encoding="utf-8"?>
<!-- Generator: Adobe Illustrator 17.0.0, SVG Export Plug-In . SVG Version: 6.00 Build 0)  -->
<!DOCTYPE svg PUBLIC "-//W3C//DTD SVG 1.1//EN" "http://www.w3.org/Graphics/SVG/1.1/DTD/svg11.dtd">
<svg version="1.1" id="Layer_1" xmlns="http://www.w3.org/2000/svg" xmlns:xlink="http://www.w3.org/1999/xlink" x="0px" y="0px"
	 width="430px" height="200px" viewBox="0 0 430 200" enable-background="new 0 0 430 200" xml:space="preserve">
<g>
	<g>
		<circle fill="#D9D9D9" stroke="#9C9B9B" stroke-width="0.75" stroke-miterlimit="10" cx="350.043" cy="168.897" r="3.335"/>
		<circle fill="#D9D9D9" stroke="#9C9B9B" stroke-width="0.75" stroke-miterlimit="10" cx="194.266" cy="168.171" r="3.605"/>
		<path fill="#D9D9D9" stroke="#9C9B9B" stroke-width="0.75" stroke-miterlimit="10" d="M194.266,146.716
			c-11.849,0-21.454,9.605-21.454,21.454s9.605,21.454,21.454,21.454s21.454-9.605,21.454-21.454
			C215.72,156.322,206.115,146.716,194.266,146.716z M194.266,182.843c-8.103,0-14.672-6.569-14.672-14.672
			s6.569-14.672,14.672-14.672s14.672,6.569,14.672,14.672S202.369,182.843,194.266,182.843z"/>
		<path fill="#D9D9D9" stroke="#9C9B9B" stroke-width="0.75" stroke-miterlimit="10" d="M350.043,149.047
			c-10.963,0-19.85,8.887-19.85,19.85s8.887,19.85,19.85,19.85s19.85-8.887,19.85-19.85S361.005,149.047,350.043,149.047z
			 M350.043,182.472c-7.497,0-13.575-6.077-13.575-13.575s6.078-13.575,13.575-13.575s13.575,6.077,13.575,13.575
			S357.54,182.472,350.043,182.472z"/>
		<path fill="#D9D9D9" stroke="#9C9B9B" stroke-width="0.75" stroke-miterlimit="10" d="M393.034,158.408
			c0.259-0.535,0.651-5.851,0.35-7.736c-0.694-1.254-1.774-0.809-2.524-2.233s0.225-8.095-1.124-13.867
			c-1.595-5.071-29.274-19.612-29.274-19.612s0.416-5.348-0.633-6.247c-1.049-0.899-8.794,0.227-8.794,0.227
			s-16.54-5.699-32.422-6.814c-4.209-0.295-37.861-2.633-49.94,0c-7.26,1.559-22.324,3.664-50.357,22.402
			c-25.035-2.174-60.73,7.579-65.006,15.445c-4.276,7.867-0.978,16.836-0.978,16.836s-2.044,0.462-2.749,1.448
			c-0.705,0.986-0.878,3.748,1.124,7.72c2.062,4.092,17.614,8.77,18.439,6.371c-1.124-7.121,0.3-29.935,25.634-29.238
			c27.508,0.756,24.79,30.996,24.79,30.996h105.46c0,0-3.088-30.106,26.686-28.497c23.018,1.106,23.029,23.516,22.417,27.114
			c0,0,11.817,0.225,12.979-0.45s5.097-3.155,5.155-6.76c0.046-2.81-0.808-2.459-0.508-4.108
			C392.06,159.758,392.607,159.292,393.034,158.408z M159.411,140.454c-1.308-2.197,4.692-7.533,15.484-7.533
			C180.806,133.183,163.386,143.07,159.411,140.454z M231.183,128.98c-0.727-0.091-0.732-0.614-0.732-0.976
			c6.832-10.694,24.97-22.843,55.032-22.62c1.883-0.009,3.697,0,5.714,0c0.314,2.702-4.38,21.521-5.374,22.881
			C284.488,128.893,235.839,129.137,231.183,128.98z M284.715,138.396c-0.95,0.715-9.742,0.666-10.579,0.073
			s-1.496-1.887-1.418-3.003c0.078-1.116,13.435-0.907,13.34-0.035C285.962,136.304,285.665,137.681,284.715,138.396z
			 M339.342,138.396c-0.95,0.715-9.742,0.666-10.579,0.073s-1.496-1.887-1.418-3.003c0.078-1.116,13.435-0.907,13.34-0.035
			C340.589,136.304,340.292,137.681,339.342,138.396z M347.991,126.76c-2.664,0.878-57.442,1.244-57.442,1.244l4.245-22.546
			c0,0,40.646-2.092,56.392,16.112C353.278,125.597,349.8,126.164,347.991,126.76z M380.899,141.884
			c-7.598-0.49-8.509-7.379-7.882-7.937c0.332-0.295,4.074,0.255,7.672,0.439c3.2,0.164,6.298-0.079,6.626,0.317
			C388.013,135.542,388.746,142.389,380.899,141.884z"/>
	</g>
	
		<rect x="77.259" y="11.474" fill="#ECECEC" stroke="#0265A2" stroke-linecap="round" stroke-linejoin="round" stroke-miterlimit="10" width="77.971" height="18.763"/>
	<path fill="#0265A2" stroke="#0265A2" stroke-linecap="round" stroke-linejoin="round" stroke-miterlimit="10" d="M213.026,24.892
		c2.991,0,5.416-2.425,5.416-5.416H207.61C207.61,22.467,210.035,24.892,213.026,24.892z"/>
	<polygon fill="#ECECEC" stroke="#0265A2" stroke-linecap="round" stroke-linejoin="round" stroke-miterlimit="10" points="
		213.026,11.339 202.864,11.339 202.864,16.756 207.61,16.756 218.442,16.756 403.919,16.756 403.919,11.339 	"/>
	
		<rect x="205.984" y="16.948" fill="#ECECEC" stroke="#0265A2" stroke-linecap="round" stroke-linejoin="round" stroke-miterlimit="10" width="14.083" height="2.528"/>
	<path fill="#E6E6E6" stroke="#0265A2" stroke-linecap="round" stroke-linejoin="round" stroke-miterlimit="10" d="M19.345,24.892
		c-2.991,0-5.416-2.425-5.416-5.416h10.833C24.761,22.467,22.336,24.892,19.345,24.892z"/>
	<polyline fill="#E6E6E6" stroke="#0265A2" stroke-linecap="round" stroke-linejoin="round" stroke-miterlimit="10" points="
		4.655,11.339 28.771,11.339 30.055,11.339 30.055,16.756 29.455,16.756 28.087,16.756 4.655,16.756 	"/>
	
		<rect x="12.303" y="16.948" fill="#E6E6E6" stroke="#0265A2" stroke-linecap="round" stroke-linejoin="round" stroke-miterlimit="10" width="14.083" height="2.528"/>
	<polygon fill="#ECECEC" stroke="#0265A2" stroke-linecap="round" stroke-linejoin="round" stroke-miterlimit="10" points="
		403.936,11.339 403.936,115.964 403.936,139.584 403.936,162.9 403.936,186.52 403.936,189.625 412.171,189.625 412.171,169.254 
		412.171,145.634 412.171,122.318 412.171,98.698 412.171,11.339 	"/>
	<polygon fill="#81B2D2" points="404.407,186.005 411.699,168.739 411.699,145.119 404.407,162.385 	"/>
	<polygon fill="#81B2D2" points="411.699,98.098 404.407,115.364 404.407,138.984 411.699,121.718 	"/>
	<g>
		
			<line fill="none" stroke="#0265A2" stroke-linecap="round" stroke-linejoin="round" stroke-miterlimit="10" x1="100.187" y1="20.817" x2="83.976" y2="20.817"/>
		
			<line fill="none" stroke="#0265A2" stroke-linecap="round" stroke-linejoin="round" stroke-miterlimit="10" x1="89.241" y1="15.552" x2="83.976" y2="20.817"/>
		
			<line fill="none" stroke="#0265A2" stroke-linecap="round" stroke-linejoin="round" stroke-miterlimit="10" x1="89.241" y1="26.083" x2="83.976" y2="20.817"/>
	</g>
	<g>
		<path fill="none" d="M115.648,25.271c0,0.78-0.638,1.417-1.417,1.417h-4.174c-0.78,0-1.417-0.638-1.417-1.417v-8.302
			c0-0.78,0.638-1.417,1.417-1.417h4.174c0.78,0,1.417,0.638,1.417,1.417V25.271z"/>
		<path fill="none" stroke="#0265A2" stroke-linecap="round" stroke-linejoin="round" stroke-miterlimit="10" d="M115.648,25.271
			c0,0.78-0.638,1.417-1.417,1.417h-4.174c-0.78,0-1.417-0.638-1.417-1.417v-8.302c0-0.78,0.638-1.417,1.417-1.417h4.174
			c0.78,0,1.417,0.638,1.417,1.417V25.271z"/>
	</g>
	<polyline fill="none" stroke="#0265A2" stroke-linecap="round" stroke-linejoin="round" stroke-miterlimit="10" points="
		120.493,18.185 123.252,15.425 123.252,26.688 	"/>
	<rect x="135.223" y="11.953" fill="#81B2D2" width="19.496" height="17.797"/>
	<path fill="#FFFFFF" d="M142.537,28.126c-0.823,0-1.49-0.667-1.49-1.49V16.93c0-1.683,1.307-3.168,2.977-3.381
		c0.271-0.034,2.691-0.296,4.319,1.137c0.614,0.54,1.346,1.536,1.346,3.209c0,1.663-0.722,2.676-1.327,3.232
		c-1.602,1.472-3.994,1.317-4.261,1.296c-0.025-0.002-0.049-0.005-0.074-0.008v4.221C144.027,27.459,143.36,28.126,142.537,28.126z
		 M144.742,16.489c-0.154,0-0.275,0.008-0.339,0.016c-0.179,0.023-0.375,0.246-0.375,0.425v2.531
		c0.105-0.015,0.214-0.017,0.324-0.008c0.336,0.025,1.456-0.019,1.999-0.525c0.154-0.144,0.359-0.407,0.359-1.034
		c0-0.607-0.191-0.846-0.335-0.973C145.965,16.562,145.205,16.489,144.742,16.489z"/>
	
		<line fill="#D9D9D9" stroke="#9C9B9B" stroke-linecap="round" stroke-miterlimit="10" x1="5.203" y1="189.625" x2="428.117" y2="189.625"/>
</g>
</svg>
